<svg xmlns="http://www.w3.org/2000/svg" width="27" height="23" viewBox="0 0 27 23"><defs><style>.cls-1{fill:#eee;fill-rule:evenodd}</style></defs><path id="Github" class="cls-1" d="M24.794 6.311a8.676 8.676 0 0 0 .438-2.744A7.9 7.9 0 0 0 24.4.006a7.022 7.022 0 0 0-3.066.637 16.912 16.912 0 0 0-3.033 1.976 19.1 19.1 0 0 0-4.537-.519 21.436 21.436 0 0 0-5.013.572A17.386 17.386 0 0 0 5.686.651 6.981 6.981 0 0 0 2.6.006a7.9 7.9 0 0 0-.827 3.561 8.874 8.874 0 0 0 .438 2.776 9.644 9.644 0 0 0-2.203 6.468 12.183 12.183 0 0 0 1.006 5.406 6.792 6.792 0 0 0 1.4 1.878 7.178 7.178 0 0 0 1.963 1.323 17.022 17.022 0 0 0 2.222.841 14.3 14.3 0 0 0 2.474.49q1.354.156 2.393.2t2.298.051q1.492 0 2.709-.073a23.726 23.726 0 0 0 2.782-.359 13.815 13.815 0 0 0 2.758-.776 8.773 8.773 0 0 0 2.287-1.4 6.583 6.583 0 0 0 1.712-2.172A12.432 12.432 0 0 0 27 12.811a9.732 9.732 0 0 0-2.206-6.5zm-1.946 11.882a4.623 4.623 0 0 1-1.314 1.682 6.254 6.254 0 0 1-1.979.98 11.871 11.871 0 0 1-2.271.482 23.289 23.289 0 0 1-2.417.114h-2.725a23.285 23.285 0 0 1-2.417-.114 11.871 11.871 0 0 1-2.271-.482 6.248 6.248 0 0 1-1.979-.98 4.621 4.621 0 0 1-1.314-1.682 5.685 5.685 0 0 1-.519-2.507 5.1 5.1 0 0 1 1.119-3.332 3.708 3.708 0 0 1 3.033-1.372 30.974 30.974 0 0 1 3.163.343 16.587 16.587 0 0 0 2.547.18 16.559 16.559 0 0 0 2.547-.18q2.5-.343 3.163-.343a3.708 3.708 0 0 1 3.033 1.372 5.1 5.1 0 0 1 1.119 3.332 5.687 5.687 0 0 1-.518 2.507zM9.489 13.105a1.523 1.523 0 0 0-2.352 0 3.222 3.222 0 0 0-.7 1.241 4.522 4.522 0 0 0 0 2.679 3.217 3.217 0 0 0 .7 1.241 1.523 1.523 0 0 0 2.352 0 3.223 3.223 0 0 0 .7-1.241 4.525 4.525 0 0 0 0-2.679 3.222 3.222 0 0 0-.7-1.241zm10.382 0a1.522 1.522 0 0 0-2.352 0 3.217 3.217 0 0 0-.7 1.241 4.515 4.515 0 0 0 0 2.679 3.218 3.218 0 0 0 .7 1.241 1.523 1.523 0 0 0 2.352 0 3.23 3.23 0 0 0 .7-1.241 4.525 4.525 0 0 0 0-2.679 3.231 3.231 0 0 0-.7-1.241z"/></svg>