<svg xmlns="http://www.w3.org/2000/svg" width="27" height="22" viewBox="0 0 27 22">
  <defs>
    <style>
      .cls-1 {
        fill: #014ea5;
        fill-rule: evenodd;
      }
    </style>
  </defs>
  <path id="Twitter" class="cls-1" d="M26.256,0.4a11.114,11.114,0,0,1-3.519,1.35,5.535,5.535,0,0,0-9.58,3.8A5.617,5.617,0,0,0,13.3,6.82,15.7,15.7,0,0,1,1.886,1.011,5.581,5.581,0,0,0,3.6,8.432a5.518,5.518,0,0,1-2.508-.7V7.8a5.561,5.561,0,0,0,4.441,5.453,5.5,5.5,0,0,1-2.5.094A5.55,5.55,0,0,0,8.2,17.212a11.086,11.086,0,0,1-6.877,2.378,11.613,11.613,0,0,1-1.321-.076,15.639,15.639,0,0,0,8.489,2.5c10.186,0,15.756-8.472,15.756-15.819l-0.018-.72A11.171,11.171,0,0,0,27,2.6a11.04,11.04,0,0,1-3.18.876A5.586,5.586,0,0,0,26.256.4Z"/>
</svg>
