<svg xmlns="http://www.w3.org/2000/svg" width="28" height="24" viewBox="0 0 28 24">
  <defs>
    <style>
      .cls-1 {
        fill: #014ea5;
        fill-rule: evenodd;
      }
    </style>
  </defs>
  <path id="Vimeo" class="cls-1" d="M27.866,4.466a3.977,3.977,0,0,0-.52-3.27C26.337-.074,24.188-0.121,22.715.1a9.7,9.7,0,0,0-6.628,6.215c2.442-.185,3.722.175,3.487,2.849a9.785,9.785,0,0,1-1.3,3.52c-0.733,1.355-2.107,4.015-3.908,2.1-1.623-1.726-1.5-5.026-1.872-7.224a30.106,30.106,0,0,0-.832-4.038C11.313,2.432,10.51,1.117,9.528.832A4.38,4.38,0,0,0,6.4,1.453C3.967,2.878,2.109,4.905,0,6.578H0C0.343,7.309.531,7.783,1.146,7.872c1.452,0.213,2.835-1.345,3.8.276a16.613,16.613,0,0,1,1.146,3.144c0.5,1.422.89,2.97,1.3,4.606,0.7,2.77,1.55,6.908,3.957,7.922,1.228,0.519,3.074-.175,4.009-0.726a22.321,22.321,0,0,0,6.193-5.848A39.694,39.694,0,0,0,27.866,4.466Z"/>
</svg>
